<mxfile host="app.diagrams.net" modified="2022-01-07T00:46:21.849Z" agent="5.0 (Macintosh; Intel Mac OS X 10_15_7) AppleWebKit/537.36 (KHTML, like Gecko) Chrome/96.0.4664.110 Safari/537.36" etag="BT9OHHvkIjxGeyfPPDcH" version="16.2.2" type="github">
  <diagram id="MJPlRWvp50738vHIixjE" name="Page-1">
    <mxGraphModel dx="1106" dy="709" grid="1" gridSize="10" guides="1" tooltips="1" connect="1" arrows="1" fold="1" page="1" pageScale="1" pageWidth="850" pageHeight="1100" math="0" shadow="0">
      <root>
        <mxCell id="0" />
        <mxCell id="1" parent="0" />
        <mxCell id="y_yeyw1khPf3cbgA7lWo-23" value="" style="rounded=0;whiteSpace=wrap;html=1;labelBackgroundColor=#CC0000;fontSize=19;fontColor=#FFFFFF;fillColor=#FFD966;" vertex="1" parent="1">
          <mxGeometry x="160" y="160" width="480" height="640" as="geometry" />
        </mxCell>
        <mxCell id="y_yeyw1khPf3cbgA7lWo-1" value="int" style="shape=cube;whiteSpace=wrap;html=1;boundedLbl=1;backgroundOutline=1;darkOpacity=0.05;darkOpacity2=0.1;direction=south;fillColor=#dae8fc;strokeColor=#6c8ebf;fontStyle=1;fontSize=19;" vertex="1" parent="1">
          <mxGeometry x="360" y="200" width="100" height="80" as="geometry" />
        </mxCell>
        <mxCell id="y_yeyw1khPf3cbgA7lWo-2" value="&lt;font style=&quot;font-size: 19px&quot;&gt;00...1101&lt;/font&gt;" style="endArrow=classic;html=1;rounded=0;entryX=0;entryY=0;entryDx=50;entryDy=100;entryPerimeter=0;strokeWidth=5;labelBackgroundColor=#FFD966;" edge="1" parent="1" target="y_yeyw1khPf3cbgA7lWo-1">
          <mxGeometry width="50" height="50" relative="1" as="geometry">
            <mxPoint x="200" y="250" as="sourcePoint" />
            <mxPoint x="350" y="230" as="targetPoint" />
          </mxGeometry>
        </mxCell>
        <mxCell id="y_yeyw1khPf3cbgA7lWo-3" value="" style="endArrow=classic;html=1;rounded=0;entryX=0;entryY=0;entryDx=50;entryDy=100;entryPerimeter=0;strokeWidth=5;" edge="1" parent="1">
          <mxGeometry width="50" height="50" relative="1" as="geometry">
            <mxPoint x="450" y="250" as="sourcePoint" />
            <mxPoint x="610" y="250" as="targetPoint" />
          </mxGeometry>
        </mxCell>
        <mxCell id="y_yeyw1khPf3cbgA7lWo-16" value="13" style="edgeLabel;html=1;align=center;verticalAlign=middle;resizable=0;points=[];fontSize=19;labelBackgroundColor=#FFD966;" vertex="1" connectable="0" parent="y_yeyw1khPf3cbgA7lWo-3">
          <mxGeometry x="-0.0556" y="-5" relative="1" as="geometry">
            <mxPoint as="offset" />
          </mxGeometry>
        </mxCell>
        <mxCell id="y_yeyw1khPf3cbgA7lWo-7" value="float" style="shape=cube;whiteSpace=wrap;html=1;boundedLbl=1;backgroundOutline=1;darkOpacity=0.05;darkOpacity2=0.1;direction=south;fillColor=#e1d5e7;strokeColor=#9673a6;fontStyle=1;fontSize=19;" vertex="1" parent="1">
          <mxGeometry x="360" y="360" width="100" height="80" as="geometry" />
        </mxCell>
        <mxCell id="y_yeyw1khPf3cbgA7lWo-8" value="&lt;font style=&quot;font-size: 19px&quot;&gt;00...1101&lt;/font&gt;" style="endArrow=classic;html=1;rounded=0;entryX=0;entryY=0;entryDx=50;entryDy=100;entryPerimeter=0;strokeWidth=5;labelBackgroundColor=#FFD966;" edge="1" parent="1" target="y_yeyw1khPf3cbgA7lWo-7">
          <mxGeometry width="50" height="50" relative="1" as="geometry">
            <mxPoint x="200" y="410" as="sourcePoint" />
            <mxPoint x="350" y="390" as="targetPoint" />
          </mxGeometry>
        </mxCell>
        <mxCell id="y_yeyw1khPf3cbgA7lWo-9" value="" style="endArrow=classic;html=1;rounded=0;entryX=0;entryY=0;entryDx=50;entryDy=100;entryPerimeter=0;strokeWidth=5;" edge="1" parent="1">
          <mxGeometry width="50" height="50" relative="1" as="geometry">
            <mxPoint x="450" y="410" as="sourcePoint" />
            <mxPoint x="610" y="410" as="targetPoint" />
          </mxGeometry>
        </mxCell>
        <mxCell id="y_yeyw1khPf3cbgA7lWo-19" value="13.0" style="edgeLabel;html=1;align=center;verticalAlign=middle;resizable=0;points=[];fontSize=19;labelBackgroundColor=#FFD966;" vertex="1" connectable="0" parent="y_yeyw1khPf3cbgA7lWo-9">
          <mxGeometry x="0.0444" y="-2" relative="1" as="geometry">
            <mxPoint as="offset" />
          </mxGeometry>
        </mxCell>
        <mxCell id="y_yeyw1khPf3cbgA7lWo-10" value="char" style="shape=cube;whiteSpace=wrap;html=1;boundedLbl=1;backgroundOutline=1;darkOpacity=0.05;darkOpacity2=0.1;direction=south;fillColor=#cdeb8b;strokeColor=#36393d;fontStyle=1;fontSize=19;" vertex="1" parent="1">
          <mxGeometry x="360" y="520" width="100" height="80" as="geometry" />
        </mxCell>
        <mxCell id="y_yeyw1khPf3cbgA7lWo-11" value="&lt;font style=&quot;font-size: 19px&quot;&gt;00...1101&lt;/font&gt;" style="endArrow=classic;html=1;rounded=0;entryX=0;entryY=0;entryDx=50;entryDy=100;entryPerimeter=0;strokeWidth=5;labelBackgroundColor=#FFD966;" edge="1" parent="1" target="y_yeyw1khPf3cbgA7lWo-10">
          <mxGeometry width="50" height="50" relative="1" as="geometry">
            <mxPoint x="200" y="570" as="sourcePoint" />
            <mxPoint x="350" y="550" as="targetPoint" />
          </mxGeometry>
        </mxCell>
        <mxCell id="y_yeyw1khPf3cbgA7lWo-12" value="" style="endArrow=classic;html=1;rounded=0;entryX=0;entryY=0;entryDx=50;entryDy=100;entryPerimeter=0;strokeWidth=5;" edge="1" parent="1">
          <mxGeometry width="50" height="50" relative="1" as="geometry">
            <mxPoint x="450" y="570" as="sourcePoint" />
            <mxPoint x="610" y="570" as="targetPoint" />
          </mxGeometry>
        </mxCell>
        <mxCell id="y_yeyw1khPf3cbgA7lWo-20" value="&#39;$&#39;" style="edgeLabel;html=1;align=center;verticalAlign=middle;resizable=0;points=[];fontSize=19;labelBackgroundColor=#FFD966;" vertex="1" connectable="0" parent="y_yeyw1khPf3cbgA7lWo-12">
          <mxGeometry x="-0.1056" y="2" relative="1" as="geometry">
            <mxPoint as="offset" />
          </mxGeometry>
        </mxCell>
        <mxCell id="y_yeyw1khPf3cbgA7lWo-13" value="boolean" style="shape=cube;whiteSpace=wrap;html=1;boundedLbl=1;backgroundOutline=1;darkOpacity=0.05;darkOpacity2=0.1;direction=south;fillColor=#f8cecc;strokeColor=#b85450;fontStyle=1;fontSize=19;" vertex="1" parent="1">
          <mxGeometry x="360" y="680" width="100" height="80" as="geometry" />
        </mxCell>
        <mxCell id="y_yeyw1khPf3cbgA7lWo-14" value="&lt;font style=&quot;font-size: 19px&quot;&gt;00...1101&lt;/font&gt;" style="endArrow=classic;html=1;rounded=0;entryX=0;entryY=0;entryDx=50;entryDy=100;entryPerimeter=0;strokeWidth=5;labelBackgroundColor=#FFD966;" edge="1" parent="1" target="y_yeyw1khPf3cbgA7lWo-13">
          <mxGeometry width="50" height="50" relative="1" as="geometry">
            <mxPoint x="200" y="730" as="sourcePoint" />
            <mxPoint x="350" y="710" as="targetPoint" />
          </mxGeometry>
        </mxCell>
        <mxCell id="y_yeyw1khPf3cbgA7lWo-15" value="" style="endArrow=classic;html=1;rounded=0;entryX=0;entryY=0;entryDx=50;entryDy=100;entryPerimeter=0;strokeWidth=5;" edge="1" parent="1">
          <mxGeometry width="50" height="50" relative="1" as="geometry">
            <mxPoint x="450" y="730" as="sourcePoint" />
            <mxPoint x="610" y="730" as="targetPoint" />
          </mxGeometry>
        </mxCell>
        <mxCell id="y_yeyw1khPf3cbgA7lWo-21" value="true" style="edgeLabel;html=1;align=center;verticalAlign=middle;resizable=0;points=[];fontSize=19;labelBackgroundColor=#FFD966;" vertex="1" connectable="0" parent="y_yeyw1khPf3cbgA7lWo-15">
          <mxGeometry x="-0.0931" y="3" relative="1" as="geometry">
            <mxPoint as="offset" />
          </mxGeometry>
        </mxCell>
      </root>
    </mxGraphModel>
  </diagram>
</mxfile>
